<?xml version="1.0" encoding="UTF-8"?>
<svg width="9px" height="10px" viewBox="0 0 9 10" version="1.1" xmlns="http://www.w3.org/2000/svg" xmlns:xlink="http://www.w3.org/1999/xlink">
    <!-- Generator: Sketch 52.2 (67145) - http://www.bohemiancoding.com/sketch -->
    <title>Shape</title>
    <desc>Created with Sketch.</desc>
    <g id="Page-1" stroke="none" stroke-width="1" fill="none" fill-rule="evenodd">
        <g id="Desktop-HD-Copy-15" transform="translate(-797.000000, -530.000000)" fill="#132840" fill-rule="nonzero">
            <path d="M801.5,530.5 C799.014773,530.5 797,532.51467 797,535 C797,537.48533 799.014773,539.5 801.5,539.5 C803.985227,539.5 806,537.48533 806,535 C806,532.51467 803.985227,530.5 801.5,530.5 Z M801.5,538.681818 C799.466614,538.681818 797.818182,537.033386 797.818182,535 C797.818182,532.966614 799.466614,531.318182 801.5,531.318182 C803.533386,531.318182 805.181818,532.966614 805.181818,535 C805.181818,537.033386 803.533386,538.681818 801.5,538.681818 Z M803.136364,534.590909 L801.909091,534.590909 L801.909091,533.363636 C801.909091,533.137716 801.72592,532.954545 801.5,532.954545 C801.27408,532.954545 801.090909,533.137716 801.090909,533.363636 L801.090909,534.590909 L799.863636,534.590909 C799.637716,534.590909 799.454545,534.77408 799.454545,535 C799.454545,535.22592 799.637716,535.409091 799.863636,535.409091 L801.090909,535.409091 L801.090909,536.636364 C801.090909,536.862284 801.27408,537.045455 801.5,537.045455 C801.72592,537.045455 801.909091,536.862284 801.909091,536.636364 L801.909091,535.409091 L803.136364,535.409091 C803.362284,535.409091 803.545455,535.22592 803.545455,535 C803.545455,534.77408 803.362284,534.590909 803.136364,534.590909 Z" id="Shape"></path>
        </g>
    </g>
</svg>