<?xml version="1.0" encoding="UTF-8"?>
<svg width="13px" height="12px" viewBox="0 0 13 12" version="1.1" xmlns="http://www.w3.org/2000/svg" xmlns:xlink="http://www.w3.org/1999/xlink">
    <!-- Generator: Sketch 52.2 (67145) - http://www.bohemiancoding.com/sketch -->
    <title>backward-sign</title>
    <desc>Created with Sketch.</desc>
    <g id="Design" stroke="none" stroke-width="1" fill="none" fill-rule="evenodd" fill-opacity="0.2">
        <g id="Sidebar-|-Present-Mode" transform="translate(-80.000000, -853.000000)" fill="#132840">
            <g id="backward-sign" transform="translate(80.000000, 853.000000)">
                <path d="M5.799625,1.25072727 C5.58810425,1.03779167 5.24522909,1.03779167 5.03370833,1.25072727 L0.700375,5.61436364 C0.488918117,5.82736356 0.488918117,6.17263644 0.700375,6.38563636 L5.03370833,10.7492727 C5.2462469,10.9559848 5.58408759,10.9530286 5.79302673,10.7426283 C6.00196587,10.5322281 6.00490161,10.1920248 5.799625,9.978 L1.84925,6 L5.799625,2.022 C6.01108188,1.80900008 6.01108188,1.46372719 5.799625,1.25072727 Z" id="Path"></path>
                <path d="M12.8412917,0.159818182 C12.6297709,-0.0531174209 12.2868958,-0.0531174209 12.075375,0.159818182 L6.65870833,5.61436364 C6.44725145,5.82736356 6.44725145,6.17263644 6.65870833,6.38563636 L12.075375,11.8401818 C12.2879136,12.0468939 12.6257543,12.0439377 12.8346934,11.8335374 C13.0436325,11.6231372 13.0465683,11.2829339 12.8412917,11.0689091 L7.80758333,6 L12.8412917,0.931090909 C13.0527485,0.71809099 13.0527485,0.372818101 12.8412917,0.159818182 Z" id="Path"></path>
            </g>
        </g>
    </g>
</svg>