<?xml version="1.0" encoding="UTF-8"?>
<svg width="18px" height="18px" viewBox="0 0 18 18" version="1.1" xmlns="http://www.w3.org/2000/svg" xmlns:xlink="http://www.w3.org/1999/xlink">
    <!-- Generator: Sketch 52.2 (67145) - http://www.bohemiancoding.com/sketch -->
    <title>comments</title>
    <desc>Created with Sketch.</desc>
    <g id="Page-1" stroke="none" stroke-width="1" fill="none" fill-rule="evenodd">
        <g id="Sidebar-|-Edit-Mode" transform="translate(-70.000000, -737.000000)" fill="#132840" fill-rule="nonzero">
            <g id="comments" transform="translate(70.000000, 737.000000)">
                <path d="M1.16129032,6.46875 C1.16129032,3.517875 3.92109677,1.125 7.5483871,1.125 C10.4359355,1.125 13.3548387,3.517875 13.3548387,6.46875 C13.3548387,9.4201875 11.0758065,11.8125 7.5483871,11.8125 C7.02987097,11.8125 5.94812903,11.755125 5.4656129,11.6578125 L3.48387097,12.9375 L3.48387097,10.944 C2.06767742,9.8308125 1.16129032,8.344125 1.16129032,6.46875 Z M5.59567742,12.789 C6.04683871,12.8604375 7.07283871,12.9375 7.5483871,12.9375 C11.7174194,12.9375 14.516129,9.9320625 14.516129,6.3984375 C14.516129,2.8648125 11.0189032,0 7.5483871,0 C3.37412903,0 0,2.8648125 0,6.3984375 C0,8.4459375 0.805354839,10.1835 2.32258065,11.4350625 L2.32258065,14.625 L5.59567742,12.789 Z M15.6478065,5.1406875 C15.6588387,5.3015625 15.6774194,5.4613125 15.6774194,5.625 C15.6774194,5.98275 15.6414194,6.3331875 15.5897419,6.679125 C16.3712903,7.565625 16.8387097,8.658 16.8387097,9.84375 C16.8387097,11.719125 15.6820645,13.3655625 13.9354839,14.319 L13.9354839,16.3125 L11.9537419,15.0328125 C11.4712258,15.130125 10.970129,15.1875 10.4516129,15.1875 C8.94774194,15.1875 8.14877419,14.749875 7.05716129,14.0225625 C6.74070968,14.0473125 6.42135484,14.0625 6.09677419,14.0625 C5.86567742,14.0625 5.63922581,14.04675 5.4116129,14.0338125 C6.79412903,15.34275 8.21554839,16.171875 10.4516129,16.171875 C10.9271613,16.171875 11.3910968,16.13025 11.8422581,16.0588125 L15.0967742,18 L15.0967742,14.8100625 C16.8619355,13.638375 18,11.8209375 18,9.7734375 C18,7.9486875 17.0936129,6.3061875 15.6478065,5.1406875 Z M10.7419355,7.3125 C11.2232903,7.3125 11.6129032,6.9350625 11.6129032,6.46875 C11.6129032,6.003 11.2232903,5.625 10.7419355,5.625 C10.2605806,5.625 9.87096774,6.003 9.87096774,6.46875 C9.87096774,6.9350625 10.2605806,7.3125 10.7419355,7.3125 Z M3.77419355,7.3125 C4.25554839,7.3125 4.64516129,6.9350625 4.64516129,6.46875 C4.64516129,6.003 4.25554839,5.625 3.77419355,5.625 C3.29283871,5.625 2.90322581,6.003 2.90322581,6.46875 C2.90322581,6.9350625 3.29283871,7.3125 3.77419355,7.3125 Z M7.25806452,7.3125 C7.73941935,7.3125 8.12903226,6.9350625 8.12903226,6.46875 C8.12903226,6.003 7.73941935,5.625 7.25806452,5.625 C6.77670968,5.625 6.38709677,6.003 6.38709677,6.46875 C6.38709677,6.9350625 6.77670968,7.3125 7.25806452,7.3125 Z"></path>
            </g>
        </g>
    </g>
</svg>