<svg xmlns="http://www.w3.org/2000/svg" xmlns:xlink="http://www.w3.org/1999/xlink" width="32" height="23" viewBox="0 0 32 23">
    <defs>
        <path id="a" d="M16.959 14.99L32 .022.034.206 15.279 15c.47.455 1.216.45 1.68-.01z"/>
        <path id="c" d="M32 7.693L27.729.716A1.497 1.497 0 0 0 26.452 0H5.57c-.527 0-1.014.276-1.285.727L0 7.873l32-.18z"/>
    </defs>
    <g fill="none" fill-rule="evenodd">
        <g transform="translate(0 7.667)">
            <mask id="b" fill="#fff">
                <use xlink:href="#a"/>
            </mask>
            <use fill="#3185FC" fill-rule="nonzero" xlink:href="#a"/>
            <path fill="#206FDF" fill-rule="nonzero" d="M9.856.059l6.117 16.159L22.295.059z" mask="url(#b)"/>
        </g>
        <g>
            <mask id="d" fill="#fff">
                <use xlink:href="#c"/>
            </mask>
            <use fill="#20ABF8" fill-rule="nonzero" xlink:href="#c"/>
            <path fill="#6BE8FC" fill-rule="nonzero" d="M5.535-.147l5.032 7.224L15.769 0z" mask="url(#d)"/>
            <path fill="#24CEF9" fill-rule="nonzero" d="M16.506-.147l5.032 7.224L26.74 0z" mask="url(#d)"/>
        </g>
        <path fill="#FFF" fill-rule="nonzero" d="M12.411 10.365l1.408 3.74c.07.386.07.59 0 .615-.071.025-.262-.112-.573-.412l-1.407-3.741c-.065-.446-.065-.68 0-.703.064-.022.255.145.572.501z" opacity=".168"/>
    </g>
</svg>
