<?xml version="1.0" encoding="UTF-8"?>
<svg width="18px" height="18px" viewBox="0 0 18 18" version="1.1" xmlns="http://www.w3.org/2000/svg" xmlns:xlink="http://www.w3.org/1999/xlink">
    <!-- Generator: Sketch 52.2 (67145) - http://www.bohemiancoding.com/sketch -->
    <title>vector-editing</title>
    <desc>Created with Sketch.</desc>
    <g id="Page-1" stroke="none" stroke-width="1" fill="none" fill-rule="evenodd">
        <g id="Sidebar-|-Edit-Mode" transform="translate(-70.000000, -781.000000)" fill="#3185FC">
            <g id="vector-editing" transform="translate(70.000000, 781.000000)">
                <polyline id="Path" opacity="0.184709821" points="0.72 17.28 11.52 6.48 12.72024 7.68024 2.75976 17.69976 0.72 17.28"></polyline>
                <path d="M17.28,2.88 C17.677645,2.88 18,2.55764502 18,2.16 L18,0.72 C18,0.32235498 17.677645,2.4348735e-17 17.28,0 L15.84,0 C15.442355,-2.4348735e-17 15.12,0.32235498 15.12,0.72 L15.12,1.44 L2.88,1.44 L2.88,0.72 C2.88,0.32235498 2.55764502,2.4348735e-17 2.16,0 L0.72,0 C0.32235498,-2.4348735e-17 4.86974701e-17,0.32235498 0,0.72 L0,2.16 C4.86974701e-17,2.55764502 0.32235498,2.88 0.72,2.88 L1.44,2.88 L1.44,8.28 C1.44,8.47882251 1.60117749,8.64 1.8,8.64 C1.99882251,8.64 2.16,8.47882251 2.16,8.28 L2.16,2.88 C2.55764502,2.88 2.88,2.55764502 2.88,2.16 L15.12,2.16 C15.12,2.55764502 15.442355,2.88 15.84,2.88 L15.84,15.12 C15.442355,15.12 15.12,15.442355 15.12,15.84 L9.72,15.84 C9.52117749,15.84 9.36,16.0011775 9.36,16.2 C9.36,16.3988225 9.52117749,16.56 9.72,16.56 L15.12,16.56 L15.12,17.28 C15.12,17.677645 15.442355,18 15.84,18 L17.28,18 C17.677645,18 18,17.677645 18,17.28 L18,15.84 C18,15.442355 17.677645,15.12 17.28,15.12 L16.56,15.12 L16.56,2.88 L17.28,2.88 Z M2.16,2.16 L0.72,2.16 L0.72,0.72 L2.16,0.72 L2.16,2.16 Z M17.28,15.84 L17.28,17.28 L15.84,17.28 L15.84,15.84 L17.28,15.84 Z M15.84,2.16 L15.84,0.72 L17.28,0.72 L17.28,2.16 L15.84,2.16 Z" id="Shape" fill-rule="nonzero"></path>
                <path d="M12.643632,6.88356 L11.116296,5.35644 C10.6945397,4.93473153 10.0107883,4.93473153 9.589032,5.35644 L0.316296,14.628888 C0.113707264,14.8314919 -7.25091562e-05,15.1062935 3.19744224e-16,15.392808 L3.19744224e-16,17.28 C3.68441697e-16,17.677645 0.32235498,18 0.72,18 L2.607336,18 C2.89378686,17.9999296 3.16848569,17.8861084 3.37104,17.68356 L12.643632,8.411112 C12.8462329,8.20856453 12.9600574,7.93381915 12.9600574,7.647336 C12.9600574,7.36085285 12.8462329,7.08610747 12.643632,6.88356 Z M2.861928,17.17452 C2.79460334,17.2423397 2.70289755,17.2803343 2.607336,17.28 L0.71999892,17.2800022 L0.72,15.392808 C0.719765482,15.2971816 0.757738912,15.2054233 0.82548,15.137928 L8.825256,7.138152 L10.861848,9.174744 L2.861928,17.17452 Z M12.13452,7.901712 L11.37096,8.665632 L9.334368,6.62904 L10.098072,5.86548 C10.2386519,5.7249425 10.4665321,5.7249425 10.607112,5.86548 L12.134448,7.392672 C12.2750054,7.53323207 12.2750376,7.76111218 12.13452,7.901712 Z" id="Shape" fill-rule="nonzero"></path>
            </g>
        </g>
    </g>
</svg>