<?xml version="1.0" encoding="UTF-8"?>
<svg width="18px" height="18px" viewBox="0 0 18 18" version="1.1" xmlns="http://www.w3.org/2000/svg" xmlns:xlink="http://www.w3.org/1999/xlink">
    <!-- Generator: Sketch 52.2 (67145) - http://www.bohemiancoding.com/sketch -->
    <title>file-storage</title>
    <desc>Created with Sketch.</desc>
    <g id="Page-1" stroke="none" stroke-width="1" fill="none" fill-rule="evenodd">
        <g id="Sidebar-|-Edit-Mode" transform="translate(-70.000000, -420.000000)" fill="#132840">
            <g id="file-storage" transform="translate(70.000000, 420.000000)">
                <rect id="Rectangle" opacity="0.3" x="12.5217391" y="9.39130435" width="2.34782609" height="3.13043478"></rect>
                <rect id="Rectangle" opacity="0.3" x="12.5217391" y="3.13043478" width="2.34782609" height="3.13043478"></rect>
                <path d="M16.826087,1.73774039e-16 L1.17391304,1.73774039e-16 C0.525578772,0 1.73774039e-16,0.525578772 0,1.17391304 L0,17.2173913 C8.68870193e-17,17.6496142 0.350385848,18 0.782608696,18 L1.50166957,18 C2.00696694,18.0000318 2.45559128,17.6767172 2.6154,17.1973565 L3.13043478,15.6521739 L14.8695652,15.6521739 L15.3846,17.1973565 C15.5444087,17.6767172 15.9930331,18.0000318 16.4983304,18 L17.2173913,18 C17.6496142,18 18,17.6496142 18,17.2173913 L18,1.17391304 C18,0.525578772 17.4744212,0 16.826087,1.73774039e-16 Z M17.2173913,17.2173915 L16.4983304,17.2173913 C16.3298552,17.2175666 16.180228,17.1097619 16.1270609,16.9498957 L15.6120261,15.404713 L15.4336696,14.8695652 L2.56633043,14.8695652 L2.38797391,15.404713 L1.87301739,16.9498957 C1.8197176,17.1096984 1.67012659,17.2174543 1.50166957,17.2173913 L0.782608696,17.2173915 L0.782608696,1.17391304 C0.782867435,0.957908884 0.957908884,0.782867435 1.17391304,0.782608696 L16.826087,0.782608696 C17.0420911,0.782867435 17.2171326,0.957908884 17.2173913,1.17391304 L17.2173913,17.2173915 Z" id="Shape" fill-rule="nonzero"></path>
                <path d="M15.2608696,8.60869565 L2.73913043,8.60869565 C2.52301901,8.60869565 2.34782609,8.78388858 2.34782609,9 L2.34782609,12.9130435 C2.34782609,13.1291549 2.52301901,13.3043478 2.73913043,13.3043478 L15.2608696,13.3043478 C15.476981,13.3043478 15.6521739,13.1291549 15.6521739,12.9130435 L15.6521739,9 C15.6521739,8.78388858 15.476981,8.60869565 15.2608696,8.60869565 Z M14.8695652,12.5217391 L3.13043478,12.5217391 L3.13043478,9.39130435 L14.8695652,9.39130435 L14.8695652,12.5217391 Z" id="Shape" fill-rule="nonzero"></path>
                <path d="M15.2608696,2.34782609 L2.73913043,2.34782609 C2.52301901,2.34782609 2.34782609,2.52301901 2.34782609,2.73913043 L2.34782609,6.65217391 C2.34782609,6.86828534 2.52301901,7.04347826 2.73913043,7.04347826 L15.2608696,7.04347826 C15.476981,7.04347826 15.6521739,6.86828534 15.6521739,6.65217391 L15.6521739,2.73913043 C15.6521739,2.52301901 15.476981,2.34782609 15.2608696,2.34782609 Z M14.8695652,6.26086957 L3.13043478,6.26086957 L3.13043478,3.13043478 L14.8695652,3.13043478 L14.8695652,6.26086957 Z" id="Shape" fill-rule="nonzero"></path>
                <circle id="Oval" cx="9" cy="4.30434783" r="1"></circle>
                <circle id="Oval" cx="9" cy="10.5652174" r="1"></circle>
            </g>
        </g>
    </g>
</svg>