<?xml version="1.0" encoding="UTF-8"?>
<svg width="18px" height="20px" viewBox="0 0 18 20" version="1.1" xmlns="http://www.w3.org/2000/svg" xmlns:xlink="http://www.w3.org/1999/xlink">
    <!-- Generator: Sketch 52.2 (67145) - http://www.bohemiancoding.com/sketch -->
    <title>business-growth</title>
    <desc>Created with Sketch.</desc>
    <g id="Page-1" stroke="none" stroke-width="1" fill="none" fill-rule="evenodd">
        <g id="Dashboard" transform="translate(-70.000000, -587.000000)" fill="#132840">
            <g id="business-growth" transform="translate(70.000000, 587.565217)">
                <path d="M15.948,6.04995 C15.14505,7.8945 13.50075,9.75 11.25,9.75 C10.4793915,9.76083922 9.71949822,9.56870608 9.04665,9.1929 C9.268875,9.777975 10.436175,10.5 12,10.5 C14.6346,10.5 16.442325,7.9575 17.03685,5.8665 C16.6807209,5.96287506 16.3160475,6.02431543 15.948,6.04995 Z" id="Path" fill-opacity="0.2"></path>
                <path d="M8.625,15 C8.24486119,15.0023481 7.86790705,15.069511 7.51035,15.1986 C8.73207629,15.6260223 9.6020095,16.7141525 9.75,18 L11.9793,18 C11.7861364,16.2928422 10.3430498,15.0021825 8.625,15 Z" id="Path" fill-opacity="0.2"></path>
                <path d="M5.719575,7.787475 C4.47821519,7.68579586 3.3345177,7.07416562 2.560725,6.098175 C1.79363115,5.14710322 1.45499074,3.92065524 1.6254,2.710725 C1.64505,2.568225 1.6674,2.439 1.689375,2.307675 C1.54487782,2.16158034 1.41300702,2.00351603 1.295175,1.835175 C1.08323202,2.47251812 0.935006928,3.12930603 0.852675,3.7959 C0.682204448,5.00572807 1.02070501,6.23210699 1.787625,7.1832 C2.5614177,8.15919062 3.70511519,8.77082086 4.946475,8.8725 C5.594925,8.928525 6.1908,8.96625 6.7269,8.985 C6.70415902,8.60501659 6.65799633,8.22679814 6.588675,7.8525 C6.31005,7.834875 6.021825,7.81365 5.719575,7.787475 Z" id="Path" fill-opacity="0.2"></path>
                <path d="M12,11.25 C15.68745,11.25 18,7.062525 18,4.5 C17.2109999,5.13271663 16.2053098,5.43073181 15.198975,5.330025 C14.1462,5.330025 13.033275,5.180625 12.12555,5.180625 C11.8321605,5.17593594 11.5389901,5.19916556 11.25,5.25 C9.46370467,5.59187119 8.19141926,7.18222796 8.25,9 L8.25,14.268825 C6.1263743,14.4621513 4.50037079,16.2425927 4.5,18.375 L4.5,18.75 L12.75,18.75 L12.75,18.375 C12.7496292,16.2425927 11.1236257,14.4621513 9,14.268825 L9,10.2993 C9.86793691,10.9380857 10.9225658,11.2722976 12,11.25 Z M11.394525,5.9859 C11.6359196,5.94452742 11.880679,5.92602042 12.12555,5.930625 C12.535875,5.930625 13.00245,5.963925 13.4964,5.999325 C14.051925,6.039075 14.62635,6.0801 15.1989,6.0801 C15.8183982,6.09260239 16.4367178,6.02076872 17.03685,5.866575 C16.442325,7.9575 14.6346,10.5 12,10.5 C10.26,10.5 9,9.60405 9,9 C8.94837978,7.54316419 9.96375506,6.2650641 11.394525,5.9859 Z M11.9793,18 L5.2707,18 C5.46085422,16.291017 6.90547052,14.9982245 8.625,14.9982245 C10.3445295,14.9982245 11.7891458,16.291017 11.9793,18 Z" id="Shape" fill-rule="nonzero"></path>
                <path d="M7.5,9.75 C7.5,2.281275 1.5,3.593775 1.5,0 C0.723075,0.776925 0.315,2.202375 0.109425,3.69345 C-0.0803890472,5.11900916 0.322767924,6.56003503 1.22478237,7.68013246 C2.12679682,8.80022988 3.44872532,9.50136904 4.881975,9.619875 C5.77905,9.6975 6.6879,9.75 7.5,9.75 Z M1.787625,7.1832 C1.02055781,6.23211644 0.681944885,5.00566967 0.852375,3.79575 C0.934706928,3.12915603 1.08293202,2.47236812 1.294875,1.835025 C1.84275948,2.52109658 2.52018013,3.09276183 3.2886,3.5175 C4.876575,4.54125 6.5151,5.59755 6.726975,8.985375 C6.190875,8.966325 5.595,8.9286 4.94655,8.872875 C3.70510379,8.77112254 2.56136572,8.15934935 1.787625,7.1832 Z" id="Shape" fill-rule="nonzero"></path>
            </g>
        </g>
    </g>
</svg>