<?xml version="1.0" encoding="UTF-8"?>
<svg width="18px" height="18px" viewBox="0 0 18 18" version="1.1" xmlns="http://www.w3.org/2000/svg" xmlns:xlink="http://www.w3.org/1999/xlink">
    <!-- Generator: Sketch 52.2 (67145) - http://www.bohemiancoding.com/sketch -->
    <title>presentation</title>
    <desc>Created with Sketch.</desc>
    <g id="Page-1" stroke="none" stroke-width="1" fill="none" fill-rule="evenodd">
        <g id="Sidebar-|-Edit-Mode" transform="translate(-70.000000, -693.000000)" fill="#132840">
            <g id="presentation" transform="translate(70.000000, 693.000000)">
                <circle id="Oval" cx="3.6" cy="2.16" r="2.16"></circle>
                <path d="M7.2,11.16 L7.2,8.64 C7.2,6.6517749 5.5882251,5.04 3.6,5.04 C1.6117749,5.04 2.4348735e-16,6.6517749 0,8.64 L0,11.16 C7.30462051e-17,11.7564675 0.48353247,12.24 1.08,12.24 L1.44,12.24 L1.44,16.2 C1.44,16.7964675 1.92353247,17.28 2.52,17.28 L4.68,17.28 C5.27646753,17.28 5.76,16.7964675 5.76,16.2 L5.76,12.24 L6.12,12.24 C6.71646753,12.24 7.2,11.7564675 7.2,11.16 Z" id="Path"></path>
                <path d="M15.84,11.16 L15.84,5.4 C15.84,5.20117749 15.6788225,5.04 15.48,5.04 C15.2811775,5.04 15.12,5.20117749 15.12,5.4 L15.12,11.16 C15.12,11.3588225 15.2811775,11.52 15.48,11.52 C15.6788225,11.52 15.84,11.3588225 15.84,11.16 Z" id="Path"></path>
                <path d="M9.36,11.16 L9.36,9 C9.36,8.80117749 9.19882251,8.64 9,8.64 C8.80117749,8.64 8.64,8.80117749 8.64,9 L8.64,11.16 C8.64,11.3588225 8.80117749,11.52 9,11.52 C9.19882251,11.52 9.36,11.3588225 9.36,11.16 Z" id="Path"></path>
                <path d="M13.68,11.16 L13.68,7.56 C13.68,7.36117749 13.5188225,7.2 13.32,7.2 C13.1211775,7.2 12.96,7.36117749 12.96,7.56 L12.96,11.16 C12.96,11.3588225 13.1211775,11.52 13.32,11.52 C13.5188225,11.52 13.68,11.3588225 13.68,11.16 Z" id="Path"></path>
                <path d="M11.52,11.16 L11.52,4.68 C11.52,4.48117749 11.3588225,4.32 11.16,4.32 C10.9611775,4.32 10.8,4.48117749 10.8,4.68 L10.8,11.16 C10.8,11.3588225 10.9611775,11.52 11.16,11.52 C11.3588225,11.52 11.52,11.3588225 11.52,11.16 Z" id="Path"></path>
                <path d="M16.92,1.44 L6.84,1.44 C6.64117749,1.44 6.48,1.60117749 6.48,1.8 C6.48,1.99882251 6.64117749,2.16 6.84,2.16 L16.92,2.16 C17.1187074,2.16027761 17.2797224,2.32129259 17.28,2.52 L17.28,12.6 C17.2797224,12.7987074 17.1187074,12.9597224 16.92,12.96 L6.84,12.96 C6.64117749,12.96 6.48,13.1211775 6.48,13.32 C6.48,13.5188225 6.64117749,13.68 6.84,13.68 L16.92,13.68 C17.5164675,13.68 18,13.1964675 18,12.6 L18,2.52 C18,1.92353247 17.5164675,1.44 16.92,1.44 Z" id="Path"></path>
            </g>
        </g>
    </g>
</svg>