<?xml version="1.0" encoding="UTF-8"?>
<svg width="14px" height="18px" viewBox="0 0 14 18" version="1.1" xmlns="http://www.w3.org/2000/svg" xmlns:xlink="http://www.w3.org/1999/xlink">
    <!-- Generator: Sketch 52.2 (67145) - http://www.bohemiancoding.com/sketch -->
    <title>business-plan</title>
    <desc>Created with Sketch.</desc>
    <g id="Page-1" stroke="none" stroke-width="1" fill="none" fill-rule="evenodd">
        <g id="Sidebar-|-Edit-Mode" transform="translate(-75.000000, -552.000000)" fill="#132840" fill-rule="nonzero">
            <g id="business-plan" transform="translate(75.000000, 552.000000)">
                <polygon id="Path" opacity="0.3" points="1.19504348 16.4347826 0.934434783 17.2173913 3.13043478 17.2173913 3.39104348 16.4347826"></polygon>
                <path d="M4.69565217,11.3478261 C4.65247339,10.507363 4.40735119,9.68968951 3.98105217,8.96407826 C3.44254746,8.02020598 3.15003924,6.95607241 3.13043478,5.86956522 C3.13043478,3.70361739 4.79011304,1.80367826 7.04347826,1.08782609 L7.04347826,0.794426087 C4.03606957,0.9756 1.56521739,3.2259913 1.56521739,5.86956522 C1.58482184,6.95607241 1.87733007,8.02020598 2.41583478,8.96407826 C2.8421338,9.68968951 3.087256,10.507363 3.13043478,11.3478261 C3.03499834,12.3685454 2.59858748,13.3273811 1.89156522,14.0697391 L1.8777913,14.0869565 L3.4430087,14.0869565 L3.45678261,14.0697391 C4.16380487,13.3273811 4.60021573,12.3685454 4.69565217,11.3478261 Z" id="Path" opacity="0.3"></path>
                <path d="M11.2580609,7.55788696 C10.2519463,7.40236135 9.30128263,6.99568005 8.49396522,6.37544348 C8.34042565,6.22715 8.09636683,6.22927081 7.94542751,6.38021012 C7.7944882,6.53114944 7.7923674,6.77520826 7.94066087,6.92874783 C8.00068696,6.98885217 8.07041739,7.0437913 8.13795652,7.09982609 C8.89843751,7.38354682 9.68619195,7.58795332 10.4886783,7.7097913 C10.7550399,7.75208903 11.0277619,7.69824371 11.2580609,7.55788696 Z" id="Path" opacity="0.3"></path>
                <path d="M12.3182609,4.29652174 L7.82608696,1.72956522 L7.82608696,0.391304348 C7.82608696,0.175192924 7.65089403,0 7.43478261,0 C3.82891304,0 0.782608696,2.68794783 0.782608696,5.86956522 C0.800712359,7.07527834 1.12048326,8.25726028 1.71273913,9.30764348 C2.08266335,9.92797092 2.30030642,10.6271376 2.34782609,11.3478261 C2.24525584,12.1902866 1.86941514,12.9759179 1.27784348,13.5844435 C0.969026087,13.9753565 0.782608696,14.2111565 0.782608696,14.4782609 C0.782608696,14.6943723 0.95780162,14.8695652 1.17391304,14.8695652 L11.3478261,14.8695652 C11.5639375,14.8695652 11.7391304,14.6943723 11.7391304,14.4782609 C11.6450341,13.6540753 11.2325547,12.8993001 10.589713,12.375 C9.39280791,11.2647301 8.68529966,9.724942 8.62246957,8.09358261 C9.19406467,8.25965315 9.77554425,8.38958819 10.3634609,8.48261739 C11.0617962,8.59354458 11.7657212,8.31957165 12.2053304,7.76574783 L13.219513,6.48633913 C13.2744824,6.41724696 13.3043901,6.3315522 13.3043478,6.24326087 L13.3043478,5.99525217 C13.303623,5.29326647 12.9274801,4.64528574 12.3182609,4.29652174 Z M12.5217391,6.10685217 L11.5923913,7.2792 C11.3310561,7.61381111 10.9077939,7.7789134 10.488913,7.70963478 C9.49687826,7.54833913 7.71464348,7.16047826 6.92898261,6.3752087 C6.77544304,6.22691522 6.53138422,6.22903603 6.38044491,6.37997534 C6.22950559,6.53091465 6.22738479,6.77497348 6.37567826,6.92851304 C6.79686627,7.31745669 7.29043075,7.61977524 7.82827826,7.81826087 C7.81996822,9.74425294 8.61187912,11.5871982 10.0148087,12.9067826 C10.3787566,13.2405512 10.6750902,13.6412246 10.8876522,14.0869565 L1.87771304,14.0869565 L1.89148696,14.0697391 C2.59853781,13.3273921 3.03497677,12.3685552 3.13043478,11.3478261 C3.087256,10.507363 2.8421338,9.68968951 2.41583478,8.96407826 C1.87733007,8.02020598 1.58482184,6.95607241 1.56521739,5.86956522 C1.56521739,3.2259913 4.03606957,0.9756 7.04347826,0.794426087 L7.04347826,1.95652174 C7.04334843,2.09698878 7.11865203,2.22670821 7.24069565,2.29625217 L11.9302435,4.97613913 C12.2954347,5.18565785 12.5209612,5.57422712 12.5217391,5.99525217 L12.5217391,6.10685217 Z" id="Shape"></path>
                <circle id="Oval" cx="8.21731304" cy="4.30434783" r="1"></circle>
                <path d="M12.069,16.1873217 C11.962482,15.8677365 11.6634083,15.6521714 11.3265391,15.6521739 L1.19535652,15.6521739 C0.858516172,15.6522051 0.559482831,15.8677638 0.452973913,16.1873217 L0.020426087,17.484887 C-0.0193573936,17.6041651 0.000600860063,17.7352947 0.0740696383,17.8373355 C0.147538416,17.9393763 0.265566598,17.9998962 0.391304348,18 L12.1304348,18 C12.2562415,18.0000219 12.3743862,17.9395542 12.4479464,17.8374942 C12.5215065,17.7354341 12.5415096,17.6042305 12.5017043,17.484887 L12.069,16.1873217 Z M0.934434783,17.2173913 L1.19535652,16.4347826 L11.3265391,16.4347826 L11.5873826,17.2173913 L0.934434783,17.2173913 Z" id="Shape"></path>
            </g>
        </g>
    </g>
</svg>