<?xml version="1.0" encoding="UTF-8"?>
<svg width="18px" height="19px" viewBox="0 0 18 19" version="1.1" xmlns="http://www.w3.org/2000/svg" xmlns:xlink="http://www.w3.org/1999/xlink">
    <!-- Generator: Sketch 52.2 (67145) - http://www.bohemiancoding.com/sketch -->
    <title>group</title>
    <desc>Created with Sketch.</desc>
    <g id="Page-1" stroke="none" stroke-width="1" fill="none" fill-rule="evenodd">
        <g id="Dashboard" transform="translate(-70.000000, -545.000000)" fill="#132840">
            <g id="group" transform="translate(70.000000, 545.000000)">
                <path d="M5.25,15.375 C5.24971083,15.5819869 5.08198688,15.7497108 4.875,15.75 L2.625,15.75 C2.41801312,15.7497108 2.25028917,15.5819869 2.25,15.375 L2.25,12 C2.25,11.5857864 1.91421356,11.25 1.5,11.25 L1.125,11.25 C0.918013117,11.2497108 0.750289175,11.0819869 0.75,10.875 L0.75,9 C0.747866701,7.6915756 1.59530461,6.53319827 2.84296543,6.13908986 C4.09062626,5.74498145 5.44971138,6.20636704 6.199575,7.2786 C5.59068897,7.95807781 5.25274377,8.83762685 5.25,9.75 L5.25,15.375 Z" id="Path" fill-opacity="0.1"></path>
                <path d="M17.25,10.875 C17.2497108,11.0819869 17.0819869,11.2497108 16.875,11.25 L16.5,11.25 C16.0857864,11.25 15.75,11.5857864 15.75,12 L15.75,15.375 C15.7497108,15.5819869 15.5819869,15.7497108 15.375,15.75 L13.125,15.75 C12.9180131,15.7497108 12.7502892,15.5819869 12.75,15.375 L12.75,9.75 C12.7472562,8.83762685 12.409311,7.95807781 11.800425,7.2786 C12.5502886,6.20636704 13.9093737,5.74498145 15.1570346,6.13908986 C16.4046954,6.53319827 17.2521333,7.6915756 17.25,9 L17.25,10.875 Z" id="Path" fill-opacity="0.1"></path>
                <path d="M9,5.25 C10.2426407,5.25 11.25,4.24264069 11.25,3 C11.25,1.75735931 10.2426407,0.75 9,0.75 C7.75735931,0.75 6.75,1.75735931 6.75,3 C6.75,4.24264069 7.75735931,5.25 9,5.25 Z M9,1.5 C9.82842712,1.5 10.5,2.17157288 10.5,3 C10.5,3.82842712 9.82842712,4.5 9,4.5 C8.17157288,4.5 7.5,3.82842712 7.5,3 C7.5009506,2.17196695 8.17196695,1.5009506 9,1.5 Z" id="Shape" fill-rule="nonzero"></path>
                <path d="M14.25,4.5 C15.4926407,4.5 16.5,3.49264069 16.5,2.25 C16.5,1.00735931 15.4926407,7.6089797e-17 14.25,0 C13.0073593,-7.6089797e-17 12,1.00735931 12,2.25 C12,3.49264069 13.0073593,4.5 14.25,4.5 Z M14.25,0.75 C15.0784271,0.75 15.75,1.42157288 15.75,2.25 C15.75,3.07842712 15.0784271,3.75 14.25,3.75 C13.4215729,3.75 12.75,3.07842712 12.75,2.25 C12.7509506,1.42196695 13.4219669,0.750950599 14.25,0.75 Z" id="Shape" fill-rule="nonzero"></path>
                <path d="M3.75,4.5 C4.99264069,4.5 6,3.49264069 6,2.25 C6,1.00735931 4.99264069,7.6089797e-17 3.75,0 C2.50735931,-7.6089797e-17 1.5,1.00735931 1.5,2.25 C1.5,3.49264069 2.50735931,4.5 3.75,4.5 Z M3.75,0.75 C4.57842712,0.75 5.25,1.42157288 5.25,2.25 C5.25,3.07842712 4.57842712,3.75 3.75,3.75 C2.92157288,3.75 2.25,3.07842712 2.25,2.25 C2.2509506,1.42196695 2.92196695,0.750950599 3.75,0.75 Z" id="Shape" fill-rule="nonzero"></path>
                <path d="M14.25,5.25 C13.0664068,5.25213695 11.9539646,5.81548193 11.2518,6.7683 L11.252625,6.76905 C9.92579755,5.74341188 8.07367745,5.74341188 6.74685,6.76905 L6.748125,6.767925 C5.78772571,5.46731593 4.10028123,4.93114601 2.56530045,5.43887108 C1.03031966,5.94659615 -0.00457960767,7.38323478 -6.66128733e-16,9 L-6.66128733e-16,10.875 C-5.90036375e-16,11.4963203 0.503679656,12 1.125,12 L1.5,12 L1.5,15.375 C1.5,15.9963203 2.00367966,16.5 2.625,16.5 L4.875,16.5 C5.49632034,16.5 6,15.9963203 6,15.375 L6,13.43115 C6.1201114,13.4754912 6.24697106,13.4987826 6.375,13.5 L6.75,13.5 L6.75,17.625 C6.75,18.2463203 7.25367966,18.75 7.875,18.75 L10.125,18.75 C10.7463203,18.75 11.25,18.2463203 11.25,17.625 L11.25,13.5 L11.625,13.5 C11.7530289,13.4987826 11.8798886,13.4754912 12,13.43115 L12,15.375 C12,15.9963203 12.5036797,16.5 13.125,16.5 L15.375,16.5 C15.9963203,16.5 16.5,15.9963203 16.5,15.375 L16.5,12 L16.875,12 C17.4963203,12 18,11.4963203 18,10.875 L18,9 C18,8.00543816 17.6049118,7.05161099 16.9016504,6.34834957 C16.198389,5.64508815 15.2445618,5.25 14.25,5.25 Z M5.25,15.375 C5.24971083,15.5819869 5.08198688,15.7497108 4.875,15.75 L2.625,15.75 C2.41801312,15.7497108 2.25028917,15.5819869 2.25,15.375 L2.25,12 C2.25,11.5857864 1.91421356,11.25 1.5,11.25 L1.125,11.25 C0.918013117,11.2497108 0.750289175,11.0819869 0.75,10.875 L0.75,9 C0.747866701,7.6915756 1.59530461,6.53319827 2.84296543,6.13908986 C4.09062626,5.74498145 5.44971138,6.20636704 6.199575,7.2786 C5.59068897,7.95807781 5.25274377,8.83762685 5.25,9.75 L5.25,15.375 Z M11.625,12.75 L11.25,12.75 C10.8357864,12.75 10.5,13.0857864 10.5,13.5 L10.5,17.625 C10.499752,17.832004 10.332004,17.999752 10.125,18 L7.875,18 C7.66799601,17.999752 7.50024796,17.832004 7.5,17.625 L7.5,13.5 C7.5,13.0857864 7.16421356,12.75 6.75,12.75 L6.375,12.75 C6.16799601,12.749752 6.00024796,12.582004 6,12.375 L6,9.75 C6,8.09314575 7.34314575,6.75 9,6.75 C10.6568542,6.75 12,8.09314575 12,9.75 L12,12.375 C11.999752,12.582004 11.832004,12.749752 11.625,12.75 Z M17.25,10.875 C17.2497108,11.0819869 17.0819869,11.2497108 16.875,11.25 L16.5,11.25 C16.0857864,11.25 15.75,11.5857864 15.75,12 L15.75,15.375 C15.7497108,15.5819869 15.5819869,15.7497108 15.375,15.75 L13.125,15.75 C12.9180131,15.7497108 12.7502892,15.5819869 12.75,15.375 L12.75,9.75 C12.7472562,8.83762685 12.409311,7.95807781 11.800425,7.2786 C12.5502886,6.20636704 13.9093737,5.74498145 15.1570346,6.13908986 C16.4046954,6.53319827 17.2521333,7.6915756 17.25,9 L17.25,10.875 Z" id="Shape" fill-rule="nonzero"></path>
            </g>
        </g>
    </g>
</svg>