<?xml version="1.0" encoding="UTF-8"?>
<svg width="18px" height="17px" viewBox="0 0 18 17" version="1.1" xmlns="http://www.w3.org/2000/svg" xmlns:xlink="http://www.w3.org/1999/xlink">
    <!-- Generator: Sketch 52.2 (67145) - http://www.bohemiancoding.com/sketch -->
    <title>Shape</title>
    <desc>Created with Sketch.</desc>
    <g id="Page-1" stroke="none" stroke-width="1" fill="none" fill-rule="evenodd">
        <g id="Dashboard" transform="translate(-70.000000, -501.000000)" fill="#132840" fill-rule="nonzero">
            <g id="organization" transform="translate(70.000000, 501.000000)">
                <path d="M16.4347826,12.5608696 L16.4347826,9 C16.4347826,8.35166573 15.9092038,7.82608696 15.2608696,7.82608696 L9.39130435,7.82608696 L9.39130435,3.87391304 C10.3754204,3.6730312 11.0475663,2.75959616 10.9466142,1.7602731 C10.8456621,0.760950046 10.0044092,0.000399331735 9,0.000399331735 C7.99559077,0.000399331735 7.15433792,0.760950046 7.05338579,1.7602731 C6.95243366,2.75959616 7.62457961,3.6730312 8.60869565,3.87391304 L8.60869565,7.82608696 L2.73913043,7.82608696 C2.09079616,7.82608696 1.56521739,8.35166573 1.56521739,9 L1.56521739,12.5608696 C0.581101349,12.7617514 -0.0910446024,13.6751865 0.00990752673,14.6745095 C0.110859656,15.6738326 0.952112509,16.4343833 1.95652174,16.4343833 C2.96093097,16.4343833 3.80218382,15.6738326 3.90313595,14.6745095 C4.00408808,13.6751865 3.33194213,12.7617514 2.34782609,12.5608696 L2.34782609,9 C2.34782609,8.78388858 2.52301901,8.60869565 2.73913043,8.60869565 L8.60869565,8.60869565 L8.60869565,12.5608696 C7.62457961,12.7617514 6.95243366,13.6751865 7.05338579,14.6745095 C7.15433792,15.6738326 7.99559077,16.4343833 9,16.4343833 C10.0044092,16.4343833 10.8456621,15.6738326 10.9466142,14.6745095 C11.0475663,13.6751865 10.3754204,12.7617514 9.39130435,12.5608696 L9.39130435,8.60869565 L15.2608696,8.60869565 C15.476981,8.60869565 15.6521739,8.78388858 15.6521739,9 L15.6521739,12.5608696 C14.6680579,12.7617514 13.9959119,13.6751865 14.096864,14.6745095 C14.1978162,15.6738326 15.039069,16.4343833 16.0434783,16.4343833 C17.0478875,16.4343833 17.8891403,15.6738326 17.9900925,14.6745095 C18.0910446,13.6751865 17.4188987,12.7617514 16.4347826,12.5608696 Z M7.82608696,1.95652174 C7.82608696,1.30818747 8.35166573,0.782608696 9,0.782608696 C9.64833427,0.782608696 10.173913,1.30818747 10.173913,1.95652174 C10.173913,2.60485601 9.64833427,3.13043478 9,3.13043478 C8.35196967,3.12970159 7.82682015,2.60455207 7.82608696,1.95652174 Z M3.13043478,14.4782609 C3.13043478,15.1265951 2.60485601,15.6521739 1.95652174,15.6521739 C1.30818747,15.6521739 0.782608696,15.1265951 0.782608696,14.4782609 C0.782608696,13.8299266 1.30818747,13.3043478 1.95652174,13.3043478 C2.60455207,13.305081 3.12970159,13.8302305 3.13043478,14.4782609 Z M10.173913,14.4782609 C10.173913,15.1265951 9.64833427,15.6521739 9,15.6521739 C8.35166573,15.6521739 7.82608696,15.1265951 7.82608696,14.4782609 C7.82608696,13.8299266 8.35166573,13.3043478 9,13.3043478 C9.64803033,13.305081 10.1731799,13.8302305 10.173913,14.4782609 Z M16.0434783,15.6521739 C15.395144,15.6521739 14.8695652,15.1265951 14.8695652,14.4782609 C14.8695652,13.8299266 15.395144,13.3043478 16.0434783,13.3043478 C16.6918125,13.3043478 17.2173913,13.8299266 17.2173913,14.4782609 C17.2166581,15.1262912 16.6915086,15.6514407 16.0434783,15.6521739 Z" id="Shape"></path>
            </g>
        </g>
    </g>
</svg>