<?xml version="1.0" encoding="UTF-8"?>
<svg width="31px" height="32px" viewBox="0 0 31 32" version="1.1" xmlns="http://www.w3.org/2000/svg" xmlns:xlink="http://www.w3.org/1999/xlink">
    <!-- Generator: Sketch 52.4 (67378) - http://www.bohemiancoding.com/sketch -->
    <title>Group 3</title>
    <desc>Created with Sketch.</desc>
    <g id="Design" stroke="none" stroke-width="1" fill="none" fill-rule="evenodd">
        <g id="Projects-delete" transform="translate(-254.000000, -12.000000)" fill-rule="nonzero">
            <g id="Group-3" transform="translate(253.982207, 12.407534)">
                <circle id="Oval" fill="#132840" cx="15.5" cy="15.5" r="15.5"></circle>
                <path d="M16.9930147,15.9558824 L21.6601103,11.2887868 C21.9564338,10.9924632 21.9564338,10.5479779 21.6601103,10.2516544 C21.3637868,9.95533088 20.9193015,9.95533088 20.6229779,10.2516544 L15.9558824,14.91875 L11.2887868,10.2516544 C10.9924632,9.95533088 10.5479779,9.95533088 10.2516544,10.2516544 C9.95533088,10.5479779 9.95533088,10.9924632 10.2516544,11.2887868 L14.91875,15.9558824 L10.2516544,20.6229779 C9.95533088,20.9193015 9.95533088,21.3637868 10.2516544,21.6601103 C10.5479779,21.9564338 10.9924632,21.9564338 11.2887868,21.6601103 L15.9558824,16.9930147 L20.6229779,21.6601103 C20.9193015,21.9564338 21.3637868,21.9564338 21.6601103,21.6601103 C21.9564338,21.3637868 21.9564338,20.9193015 21.6601103,20.6229779 L16.9930147,15.9558824 Z" id="Cancel" fill="#FFFFFF"></path>
            </g>
        </g>
    </g>
</svg>