<?xml version="1.0" encoding="UTF-8"?>
<svg width="16px" height="18px" viewBox="0 0 16 18" version="1.1" xmlns="http://www.w3.org/2000/svg" xmlns:xlink="http://www.w3.org/1999/xlink">
    <!-- Generator: Sketch 52.2 (67145) - http://www.bohemiancoding.com/sketch -->
    <title>good-trends</title>
    <desc>Created with Sketch.</desc>
    <g id="Page-1" stroke="none" stroke-width="1" fill="none" fill-rule="evenodd">
        <g id="Sidebar-|-Edit-Mode" transform="translate(-72.000000, -464.000000)" fill="#132840" fill-rule="nonzero">
            <g id="good-trends" transform="translate(72.000000, 464.000000)">
                <polygon id="Path" opacity="0.3" points="3.65976 17.64 2.16 17.64 2.16 16.56 3.65976 15.12"></polygon>
                <polygon id="Path" opacity="0.3" points="8.64 17.64 7.14024 17.64 7.14024 12.96 8.64 11.52"></polygon>
                <polygon id="Path" opacity="0.3" points="13.73976 17.64 12.24 17.64 12.24 9.36 13.73976 7.92"></polygon>
                <path d="M3.24,12.96 L2.52,12.96 C1.92353247,12.96 1.44,13.4435325 1.44,14.04 L1.44,16.92 C1.44,17.5164675 1.92353247,18 2.52,18 L3.24,18 C3.83646753,18 4.32,17.5164675 4.32,16.92 L4.32,14.04 C4.32,13.4435325 3.83646753,12.96 3.24,12.96 Z M3.6,16.92 C3.59976196,17.1187238 3.43872383,17.279762 3.24,17.28 L2.52,17.28 C2.32127617,17.279762 2.16023804,17.1187238 2.16,16.92 L2.16,14.04 C2.16023804,13.8412762 2.32127617,13.680238 2.52,13.68 L3.24,13.68 C3.43872383,13.680238 3.59976196,13.8412762 3.6,14.04 L3.6,16.92 Z" id="Shape"></path>
                <path d="M8.28,9.36 L7.56,9.36 C6.96353247,9.36 6.48,9.84353247 6.48,10.44 L6.48,16.92 C6.48,17.5164675 6.96353247,18 7.56,18 L8.28,18 C8.87646753,18 9.36,17.5164675 9.36,16.92 L9.36,10.44 C9.36,9.84353247 8.87646753,9.36 8.28,9.36 Z M8.64,16.92 C8.63976196,17.1187238 8.47872383,17.279762 8.28,17.28 L7.56,17.28 C7.36127617,17.279762 7.20023804,17.1187238 7.2,16.92 L7.2,10.44 C7.20023804,10.2412762 7.36127617,10.080238 7.56,10.08 L8.28,10.08 C8.47872383,10.080238 8.63976196,10.2412762 8.64,10.44 L8.64,16.92 Z" id="Shape"></path>
                <path d="M13.32,5.04 L12.6,5.04 C12.0035325,5.04 11.52,5.52353247 11.52,6.12 L11.52,16.92 C11.52,17.5164675 12.0035325,18 12.6,18 L13.32,18 C13.9164675,18 14.4,17.5164675 14.4,16.92 L14.4,6.12 C14.4,5.52353247 13.9164675,5.04 13.32,5.04 Z M13.68,16.92 C13.679762,17.1187238 13.5187238,17.279762 13.32,17.28 L12.6,17.28 C12.4012762,17.279762 12.240238,17.1187238 12.24,16.92 L12.24,6.12 C12.240238,5.92127617 12.4012762,5.76023804 12.6,5.76 L13.32,5.76 C13.5187238,5.76023804 13.679762,5.92127617 13.68,6.12 L13.68,16.92 Z" id="Shape"></path>
                <path d="M15.118488,0.3528 C15.1162262,0.323390798 15.1103499,0.294372246 15.100992,0.2664 C15.0982409,0.24934425 15.0942952,0.232502804 15.089184,0.216 C15.0789436,0.197489714 15.0671152,0.179903654 15.053832,0.16344 C15.0410968,0.141182848 15.0259843,0.120373087 15.00876,0.101376 L15.003936,0.094896 C14.9889092,0.0840522574 14.9730431,0.074421844 14.956488,0.066096 C14.9359484,0.0503195472 14.9136764,0.0369370746 14.890104,0.026208 C14.8645859,0.0178261338 14.838174,0.0124615951 14.811408,0.010224 C14.7945632,0.00548751251 14.7773753,0.00206919124 14.76,0 L11.88,0 C11.6811775,-1.21743675e-17 11.52,0.16117749 11.52,0.36 C11.52,0.55882251 11.6811775,0.72 11.88,0.72 L13.920768,0.72 C8.849592,5.9112 0.9936,10.07856 0.9126,10.121472 C0.794273888,10.1787286 0.716562169,10.2959266 0.709872837,10.4272074 C0.703183504,10.5584881 0.768580154,10.6829781 0.880473585,10.7519654 C0.992367016,10.8209527 1.13296629,10.8234683 1.247256,10.758528 C1.330344,10.714896 9.24372,6.517944 14.4,1.259136 L14.4,3.24 C14.4,3.43882251 14.5611775,3.6 14.76,3.6 C14.9588225,3.6 15.12,3.43882251 15.12,3.24 L15.12,0.36 L15.118488,0.3528 Z" id="Path"></path>
            </g>
        </g>
    </g>
</svg>