<?xml version="1.0" encoding="UTF-8"?>
<svg width="15px" height="16px" viewBox="0 0 15 16" version="1.1" xmlns="http://www.w3.org/2000/svg" xmlns:xlink="http://www.w3.org/1999/xlink">
    <!-- Generator: Sketch 52.2 (67145) - http://www.bohemiancoding.com/sketch -->
    <title>Group 4</title>
    <desc>Created with Sketch.</desc>
    <g id="Design" stroke="none" stroke-width="1" fill="none" fill-rule="evenodd">
        <g id="Sidebar-|-Present-Mode" transform="translate(-113.000000, -952.000000)" fill="#132840">
            <g id="Group-4" transform="translate(113.000000, 952.000000)">
                <rect id="Rectangle" opacity="0.108537946" x="1" y="0" width="1" height="15"></rect>
                <path d="M14.9024039,7.27479388 L11.5690508,4.08941735 C11.4382571,3.96870043 11.2303539,3.97042685 11.1017752,4.09329759 C10.9731965,4.21616833 10.9713899,4.41484214 11.0977147,4.53982959 L13.8620644,7.18146235 L3.33333531,7.18146235 C3.1492393,7.18146235 3,7.32407651 3,7.5 C3,7.67592349 3.1492393,7.81853765 3.33333531,7.81853765 L13.8620644,7.81853765 L11.0977147,10.4601704 C10.9713899,10.5851579 10.9731965,10.7838317 11.1017752,10.9067024 C11.2303539,11.0295731 11.4382571,11.0312996 11.5690508,10.9105827 L14.9024039,7.72520612 C15.032532,7.60081721 15.032532,7.39918279 14.9024039,7.27479388 Z" id="Path"></path>
                <path d="M8.67857143,12.16 C8.50105133,12.16 8.35714286,12.3032689 8.35714286,12.48 L8.35714286,15.04 C8.35714286,15.2167311 8.21323438,15.36 8.03571429,15.36 L0.964285714,15.36 C0.786765616,15.36 0.642857143,15.2167311 0.642857143,15.04 L0.642857143,0.96 C0.642857143,0.78326888 0.786765616,0.64 0.964285714,0.64 L8.03571429,0.64 C8.21323438,0.64 8.35714286,0.78326888 8.35714286,0.96 L8.35714286,3.52 C8.35714286,3.69673112 8.50105133,3.84 8.67857143,3.84 C8.85609153,3.84 9,3.69673112 9,3.52 L9,0.96 C9,0.42980664 8.56827458,3.24649801e-17 8.03571429,0 L0.964285714,0 C0.43172542,-3.24649801e-17 0,0.42980664 0,0.96 L0,15.04 C1.14194368e-15,15.5701934 0.43172542,16 0.964285714,16 L8.03571429,16 C8.56827458,16 9,15.5701934 9,15.04 L9,12.48 C9,12.3032689 8.85609153,12.16 8.67857143,12.16 Z" id="Path"></path>
            </g>
        </g>
    </g>
</svg>