<?xml version="1.0" encoding="UTF-8"?>
<svg width="10px" height="10px" viewBox="0 0 10 10" version="1.1" xmlns="http://www.w3.org/2000/svg" xmlns:xlink="http://www.w3.org/1999/xlink">
    <!-- Generator: Sketch 52.4 (67378) - http://www.bohemiancoding.com/sketch -->
    <title>Shape</title>
    <desc>Created with Sketch.</desc>
    <g id="Design" stroke="none" stroke-width="1" fill="none" fill-rule="evenodd">
        <g id="Add--Copy-2" transform="translate(-5.000000, -5.000000)" fill="#132840" fill-rule="nonzero">
            <g id="Group-3">
                <g id="marquee-add" transform="translate(5.000000, 5.000000)">
                    <path d="M5,0 C2.23863636,0 0,2.23852273 0,5 C0,7.76147727 2.23863636,10 5,10 C7.76136364,10 10,7.76147727 10,5 C10,2.23852273 7.76136364,0 5,0 Z M5,9.09090909 C2.74068182,9.09090909 0.909090909,7.25931818 0.909090909,5 C0.909090909,2.74068182 2.74068182,0.909090909 5,0.909090909 C7.25931818,0.909090909 9.09090909,2.74068182 9.09090909,5 C9.09090909,7.25931818 7.25931818,9.09090909 5,9.09090909 Z M6.81818182,4.54545455 L5.45454545,4.54545455 L4.54545455,4.54545455 L3.18181818,4.54545455 C2.93079545,4.54545455 2.72727273,4.74897727 2.72727273,5 C2.72727273,5.25102273 2.93079545,5.45454545 3.18181818,5.45454545 L4.54545455,5.45454545 L5.45454545,5.45454545 L6.81818182,5.45454545 C7.06920455,5.45454545 7.27272727,5.25102273 7.27272727,5 C7.27272727,4.74897727 7.06920455,4.54545455 6.81818182,4.54545455 Z" id="Shape"></path>
                </g>
            </g>
        </g>
    </g>
</svg>