<?xml version="1.0" encoding="UTF-8"?>
<svg width="18px" height="18px" viewBox="0 0 18 18" version="1.1" xmlns="http://www.w3.org/2000/svg" xmlns:xlink="http://www.w3.org/1999/xlink">
    <!-- Generator: Sketch 52.2 (67145) - http://www.bohemiancoding.com/sketch -->
    <title>two-grids</title>
    <desc>Created with Sketch.</desc>
    <g id="Page-1" stroke="none" stroke-width="1" fill="none" fill-rule="evenodd">
        <g id="Dashboard" transform="translate(-70.000000, -299.000000)" fill="#3185FC" fill-rule="nonzero">
            <g id="two-grids" transform="translate(70.000000, 299.000000)">
                <path d="M6.65217391,3.47548077e-16 L1.17391304,3.47548077e-16 C0.525578772,0 1.73774039e-16,0.525578772 0,1.17391304 L0,6.65217391 C1.73774039e-16,7.30050818 0.525578772,7.82608696 1.17391304,7.82608696 L6.65217391,7.82608696 C7.30050818,7.82608696 7.82608696,7.30050818 7.82608696,6.65217391 L7.82608696,1.17391304 C7.82608696,0.525578772 7.30050818,0 6.65217391,3.47548077e-16 Z M7.04347826,6.65217391 C7.04347826,6.86828534 6.86828534,7.04347826 6.65217391,7.04347826 L1.17391304,7.04347826 C0.95780162,7.04347826 0.782608696,6.86828534 0.782608696,6.65217391 L0.782608696,1.17391304 C0.782608696,0.95780162 0.95780162,0.782608696 1.17391304,0.782608696 L6.65217391,0.782608696 C6.86828534,0.782608696 7.04347826,0.95780162 7.04347826,1.17391304 L7.04347826,6.65217391 Z" id="Shape"></path>
                <path d="M16.826087,3.47548077e-16 L11.3478261,3.47548077e-16 C10.6994918,0 10.173913,0.525578772 10.173913,1.17391304 L10.173913,6.65217391 C10.173913,7.30050818 10.6994918,7.82608696 11.3478261,7.82608696 L16.826087,7.82608696 C17.4744212,7.82608696 18,7.30050818 18,6.65217391 L18,1.17391304 C18,0.525578772 17.4744212,0 16.826087,3.47548077e-16 Z M17.2173913,6.65217391 C17.2173913,6.86828534 17.0421984,7.04347826 16.826087,7.04347826 L11.3478261,7.04347826 C11.1317147,7.04347826 10.9565217,6.86828534 10.9565217,6.65217391 L10.9565217,1.17391304 C10.9565217,0.95780162 11.1317147,0.782608696 11.3478261,0.782608696 L16.826087,0.782608696 C17.0421984,0.782608696 17.2173913,0.95780162 17.2173913,1.17391304 L17.2173913,6.65217391 Z" id="Shape"></path>
                <path d="M6.65217391,10.173913 L1.17391304,10.173913 C0.525578772,10.173913 1.73774039e-16,10.6994918 0,11.3478261 L0,16.826087 C1.21641827e-15,17.4744212 0.525578772,18 1.17391304,18 L6.65217391,18 C7.30050818,18 7.82608696,17.4744212 7.82608696,16.826087 L7.82608696,11.3478261 C7.82608696,10.6994918 7.30050818,10.173913 6.65217391,10.173913 Z M7.04347826,16.826087 C7.04347826,17.0421984 6.86828534,17.2173913 6.65217391,17.2173913 L1.17391304,17.2173913 C0.95780162,17.2173913 0.782608696,17.0421984 0.782608696,16.826087 L0.782608696,11.3478261 C0.782608696,11.1317147 0.95780162,10.9565217 1.17391304,10.9565217 L6.65217391,10.9565217 C6.86828534,10.9565217 7.04347826,11.1317147 7.04347826,11.3478261 L7.04347826,16.826087 Z" id="Shape"></path>
                <path d="M16.826087,10.173913 L11.3478261,10.173913 C10.6994918,10.173913 10.173913,10.6994918 10.173913,11.3478261 L10.173913,16.826087 C10.173913,17.4744212 10.6994918,18 11.3478261,18 L16.826087,18 C17.4744212,18 18,17.4744212 18,16.826087 L18,11.3478261 C18,10.6994918 17.4744212,10.173913 16.826087,10.173913 Z M17.2173913,16.826087 C17.2173913,17.0421984 17.0421984,17.2173913 16.826087,17.2173913 L11.3478261,17.2173913 C11.1317147,17.2173913 10.9565217,17.0421984 10.9565217,16.826087 L10.9565217,11.3478261 C10.9565217,11.1317147 11.1317147,10.9565217 11.3478261,10.9565217 L16.826087,10.9565217 C17.0421984,10.9565217 17.2173913,11.1317147 17.2173913,11.3478261 L17.2173913,16.826087 Z" id="Shape"></path>
            </g>
        </g>
    </g>
</svg>