<?xml version="1.0" encoding="UTF-8"?>
<svg width="18px" height="18px" viewBox="0 0 18 18" version="1.1" xmlns="http://www.w3.org/2000/svg" xmlns:xlink="http://www.w3.org/1999/xlink">
    <!-- Generator: Sketch 52.2 (67145) - http://www.bohemiancoding.com/sketch -->
    <title>text-box</title>
    <desc>Created with Sketch.</desc>
    <g id="Page-1" stroke="none" stroke-width="1" fill="none" fill-rule="evenodd">
        <g id="Sidebar-|-Edit-Mode" transform="translate(-70.000000, -235.000000)" fill="#132840">
            <g id="text-box" transform="translate(70.000000, 235.000000)">
                <path d="M13.6184211,2.25 L13.6184211,13.2631579 C13.6184211,13.4593643 13.4593643,13.6184211 13.2631579,13.6184211 L2.25,13.6184211 L2.25,15.75 L15.75,15.75 L15.75,2.25 L13.6184211,2.25 Z" id="Path" fill-opacity="0.3"></path>
                <path d="M17.28,2.88 C17.677645,2.88 18,2.55764502 18,2.16 L18,0.72 C18,0.32235498 17.677645,2.4348735e-17 17.28,0 L15.84,0 C15.442355,-2.4348735e-17 15.12,0.32235498 15.12,0.72 L15.12,1.44 L2.88,1.44 L2.88,0.72 C2.88,0.32235498 2.55764502,2.4348735e-17 2.16,0 L0.72,0 C0.32235498,-2.4348735e-17 4.86974701e-17,0.32235498 0,0.72 L0,2.16 C4.86974701e-17,2.55764502 0.32235498,2.88 0.72,2.88 L1.44,2.88 L1.44,15.12 L0.72,15.12 C0.32235498,15.12 4.86974701e-17,15.442355 0,15.84 L0,17.28 C4.86974701e-17,17.677645 0.32235498,18 0.72,18 L2.16,18 C2.55764502,18 2.88,17.677645 2.88,17.28 L2.88,16.56 L15.12,16.56 L15.12,17.28 C15.12,17.677645 15.442355,18 15.84,18 L17.28,18 C17.677645,18 18,17.677645 18,17.28 L18,15.84 C18,15.442355 17.677645,15.12 17.28,15.12 L16.56,15.12 L16.56,2.88 L17.28,2.88 Z M15.84,0.72 L17.28,0.72 L17.28,2.16 L15.84,2.16 L15.84,0.72 Z M0.72,2.16 L0.72,0.72 L2.16,0.72 L2.16,2.16 L0.72,2.16 Z M2.16,17.28 L0.72,17.28 L0.72,15.84 L2.16,15.84 L2.16,17.28 Z M17.28,15.84 L17.28,17.28 L15.84,17.28 L15.84,15.84 L17.28,15.84 Z M15.84,15.12 C15.442355,15.12 15.12,15.442355 15.12,15.84 L2.88,15.84 C2.88,15.442355 2.55764502,15.12 2.16,15.12 L2.16,2.88 C2.55764502,2.88 2.88,2.55764502 2.88,2.16 L15.12,2.16 C15.12,2.55764502 15.442355,2.88 15.84,2.88 L15.84,15.12 Z" id="Shape" fill-rule="nonzero"></path>
                <path d="M12.75,4.5 L6,4.5 C5.58578644,4.5 5.25,4.83578644 5.25,5.25 L5.25,6.375 C5.25,6.58210678 5.41789322,6.75 5.625,6.75 C5.83210678,6.75 6,6.58210678 6,6.375 L6,5.25 L9,5.25 L9,12.75 L7.875,12.75 C7.66789322,12.75 7.5,12.9178932 7.5,13.125 C7.5,13.3321068 7.66789322,13.5 7.875,13.5 L10.875,13.5 C11.0821068,13.5 11.25,13.3321068 11.25,13.125 C11.25,12.9178932 11.0821068,12.75 10.875,12.75 L9.75,12.75 L9.75,5.25 L12.75,5.25 L12.75,6.375 C12.75,6.58210678 12.9178932,6.75 13.125,6.75 C13.3321068,6.75 13.5,6.58210678 13.5,6.375 L13.5,5.25 C13.5,4.83578644 13.1642136,4.5 12.75,4.5 Z" id="Path"></path>
            </g>
        </g>
    </g>
</svg>